<?xml version="1.0" encoding="UTF-8"?>
<!--Generator: Apple Native CoreSVG 326-->
<!DOCTYPE svg
PUBLIC "-//W3C//DTD SVG 1.1//EN"
       "http://www.w3.org/Graphics/SVG/1.1/DTD/svg11.dtd">
<svg version="1.1" xmlns="http://www.w3.org/2000/svg" xmlns:xlink="http://www.w3.org/1999/xlink" viewBox="0 0 44.895 44.5532">
 <g>
  <rect height="44.5532" opacity="0" width="44.895" x="0" y="0"/>
  <path d="M44.519 22.2852C44.519 34.5557 34.5215 44.5532 22.251 44.5532C9.99756 44.5532 0 34.5557 0 22.2852C0 10.0317 9.99756 0.0341797 22.251 0.0341797C34.5215 0.0341797 44.519 10.0317 44.519 22.2852ZM14.3042 12.6978C12.1851 13.1592 11.7578 13.9624 10.8862 15.791C9.80957 18.0469 8.69873 20.9521 8.04932 23.0371C7.67334 24.4043 7.3999 25.5664 7.3999 26.5747C7.3999 28.916 8.93799 30.437 11.228 30.437C12.561 30.437 13.5352 29.9414 14.3726 28.8989L16.2866 26.5747C16.5771 26.25 16.8677 26.0962 17.2095 26.0962L27.2583 26.0962C27.6172 26.0962 27.9077 26.25 28.1812 26.5747L30.0952 28.8989C30.9326 29.9414 31.9238 30.437 33.2397 30.437C35.5469 30.437 37.0679 28.916 37.0679 26.5747C37.0679 25.5664 36.8115 24.4043 36.4185 23.0371C35.769 20.9521 34.6753 18.0469 33.5986 15.791C32.7271 13.9624 32.2998 13.1592 30.1636 12.6978C28.1812 12.2363 25.481 11.9629 22.2339 11.9629C19.0039 11.9629 16.2866 12.2363 14.3042 12.6978ZM18.0981 16.2695L18.0981 18.269L20.0293 18.269C20.5762 18.269 20.918 18.5938 20.918 19.0894C20.918 19.6191 20.5762 19.9609 20.0293 19.9609L18.0981 19.9609L18.0981 21.9775C18.0981 22.4902 17.7734 22.7979 17.2778 22.7979C16.7822 22.7979 16.4746 22.4902 16.4746 21.9775L16.4746 19.9609L14.4751 19.9609C13.9453 19.9609 13.6206 19.6191 13.6206 19.0894C13.6206 18.5938 13.9453 18.269 14.4751 18.269L16.4746 18.269L16.4746 16.2695C16.4746 15.7568 16.7822 15.415 17.2778 15.415C17.7734 15.415 18.0981 15.7568 18.0981 16.2695ZM27.1045 20.6274C27.1045 21.4478 26.438 22.0972 25.6177 22.0972C24.8145 22.0972 24.1479 21.4478 24.1479 20.6274C24.1479 19.8071 24.8145 19.1577 25.6177 19.1577C26.438 19.1577 27.1045 19.8071 27.1045 20.6274ZM30.2832 17.4487C30.2832 18.2861 29.6338 18.9355 28.8135 18.9355C28.0103 18.9355 27.3267 18.2861 27.3267 17.4487C27.3267 16.6455 28.0103 15.9961 28.8135 15.9961C29.6338 15.9961 30.2832 16.6455 30.2832 17.4487Z" fill="white" fill-opacity="0.85"/>
 </g>
</svg>
