<?xml version="1.0" encoding="UTF-8"?>
<!--Generator: Apple Native CoreSVG 326-->
<!DOCTYPE svg
PUBLIC "-//W3C//DTD SVG 1.1//EN"
       "http://www.w3.org/Graphics/SVG/1.1/DTD/svg11.dtd">
<svg version="1.1" xmlns="http://www.w3.org/2000/svg" xmlns:xlink="http://www.w3.org/1999/xlink" viewBox="0 0 52.1582 40.1782">
 <g>
  <rect height="40.1782" opacity="0" width="52.1582" x="0" y="0"/>
  <path d="M49.8853 32.8125L36.5894 20.4224C35.5811 19.4824 34.4531 19.021 33.2056 19.021C31.958 19.021 30.8813 19.4653 29.856 20.3882L19.8413 29.3262L15.7227 25.5664C14.7827 24.729 13.8086 24.2847 12.7319 24.2847C11.7065 24.2847 10.7837 24.6948 9.89502 25.5322L1.53809 33.1543C1.76025 36.9824 3.22998 38.7939 6.44287 38.7939L44.1772 38.7939C48.0566 38.7939 49.8682 36.6235 49.8853 32.8125ZM6.64795 40.1782L45.1172 40.1782C49.5435 40.1782 51.7822 37.9395 51.7822 33.5986L51.7822 6.59668C51.7822 2.23877 49.5435 0 45.1172 0L6.64795 0C2.23877 0 0 2.22168 0 6.59668L0 33.5986C0 37.9736 2.23877 40.1782 6.64795 40.1782ZM6.71631 37.1533C4.32373 37.1533 3.0249 35.8887 3.0249 33.4277L3.0249 6.75049C3.0249 4.30664 4.32373 3.0249 6.71631 3.0249L45.0659 3.0249C47.4072 3.0249 48.7402 4.30664 48.7402 6.75049L48.7402 33.4277C48.7402 35.8887 47.4072 37.1533 45.0659 37.1533Z" fill="white" fill-opacity="0.85"/>
  <path d="M16.2866 20.3711C19.1406 20.3711 21.4648 18.0469 21.4648 15.1758C21.4648 12.3218 19.1406 9.96338 16.2866 9.96338C13.4155 9.96338 11.0913 12.3218 11.0913 15.1758C11.0913 18.0469 13.4155 20.3711 16.2866 20.3711Z" fill="white" fill-opacity="0.85"/>
 </g>
</svg>
